# xmcd CD database file
#
# Track frame offsets:
#	150
#	15243
#	31099
#	53686
#	69214
#	92442
#	109477
#	124475
#	141109
#	156609
#
# Disc length: 2319 seconds
#
# Revision: 0
# Processed by: cddbd v1.5.2PL0 Copyright (c) Steve Scherf et al.
# Submitted via: CDex 1.70beta2
#
DISCID=7e090d0a
DTITLE=Mike Northcutt - Mike Northcutt
DYEAR=1996
DGENRE=Blues
TTITLE0=No Warranty
TTITLE1=My Shoes Don't Like The City
TTITLE2=Trouble In The Man
TTITLE3=If This Were The '50s
TTITLE4=Another Brakdown
TTITLE5=Someday Tonight
TTITLE6=Nobody's Concern
TTITLE7=Whipped
TTITLE8=Swing From A Tree (1987)
TTITLE9=Jennie What's your Name (1989)
EXTD=YEAR: 1996
EXTT0=
EXTT1=
EXTT2=
EXTT3=
EXTT4=
EXTT5=
EXTT6=
EXTT7=
EXTT8=
EXTT9=
PLAYORDER=
